<svg id="visual" viewBox="0 0 1345 500" width="1345" height="500" xmlns="http://www.w3.org/2000/svg" xmlns:xlink="http://www.w3.org/1999/xlink" version="1.1"><rect x="0" y="0" width="1345" height="500" fill="#f6f6f6"></rect><g transform="translate(673.2873442541696 255.604046106677)"><path d="M106.8 -136.6C138.1 -100.9 163.1 -67.1 175.3 -26.7C187.5 13.7 186.8 60.6 169.7 105.3C152.6 150 119.1 192.4 79.1 199C39.2 205.6 -7.1 176.2 -54 155.9C-100.9 135.6 -148.3 124.3 -169.9 94.4C-191.5 64.6 -187.4 16.1 -174.9 -26.7C-162.4 -69.5 -141.6 -106.8 -111.1 -142.6C-80.6 -178.3 -40.3 -212.7 -1.3 -211.1C37.7 -209.6 75.4 -172.2 106.8 -136.6" fill="#e8e4eb"></path></g></svg>